<?xml version="1.0" encoding="UTF-8" standalone="no"?>
<svg
   xmlns:dc="http://purl.org/dc/elements/1.1/"
   xmlns:cc="http://creativecommons.org/ns#"
   xmlns:rdf="http://www.w3.org/1999/02/22-rdf-syntax-ns#"
   xmlns:svg="http://www.w3.org/2000/svg"
   xmlns="http://www.w3.org/2000/svg"
   xmlns:sodipodi="http://sodipodi.sourceforge.net/DTD/sodipodi-0.dtd"
   xmlns:inkscape="http://www.inkscape.org/namespaces/inkscape"
   version="1.1"
   id="Layer_1"
   x="0px"
   y="0px"
   viewBox="0 0 512 512"
   style="enable-background:new 0 0 512 512;"
   xml:space="preserve"
   sodipodi:docname="maps.svg"
   inkscape:version="0.92.5 (2060ec1f9f, 2020-04-08)"><metadata
   id="metadata13"><rdf:RDF><cc:Work
       rdf:about=""><dc:format>image/svg+xml</dc:format><dc:type
         rdf:resource="http://purl.org/dc/dcmitype/StillImage" /></cc:Work></rdf:RDF></metadata><defs
   id="defs11" /><sodipodi:namedview
   pagecolor="#ffffff"
   bordercolor="#666666"
   borderopacity="1"
   objecttolerance="10"
   gridtolerance="10"
   guidetolerance="10"
   inkscape:pageopacity="0"
   inkscape:pageshadow="2"
   inkscape:window-width="1920"
   inkscape:window-height="1043"
   id="namedview9"
   showgrid="false"
   inkscape:zoom="2.6074562"
   inkscape:cx="245.19116"
   inkscape:cy="315.71944"
   inkscape:window-x="1366"
   inkscape:window-y="0"
   inkscape:window-maximized="1"
   inkscape:current-layer="g6" />
<g
   id="g6">
<path
   d="m 255.998,226.953 c 41.753,0 75.724,-33.974 75.724,-75.736 0,-41.753 -33.97,-75.724 -75.724,-75.724 -41.753,0 -75.722,33.969 -75.722,75.724 0,41.76 33.97,75.736 75.722,75.736 z m 0.38352,-124.36862 c 36.76365,-0.35149 51.01868,25.67416 51.31823,48.2481 0.44214,33.32038 -20.29843,50.51911 -52.08527,50.94672 -32.92493,0.44292 -50.77703,-15.71029 -50.93271,-49.41265 -0.14858,-32.16551 19.53637,-49.47466 51.69975,-49.78217 z"
   id="path2"
   inkscape:connector-curvature="0"
   sodipodi:nodetypes="ssssssssss" />
<path
   d="m 473.053,194.757 c 0,-11.717 -9.499,-21.215 -21.216,-21.215 H 404.006 C 419.387,77.012 344.64,0 255.998,0 168.017,0 92.468,76.35 107.986,173.541 H 60.161 c -11.717,0 -21.216,9.499 -21.216,21.215 v 296.028 c 0,11.717 9.499,21.215 21.216,21.215 h 391.679 0.001 10e-4 c 11.388,0 21.213,-9.236 21.213,-21.215 -0.002,-13.187 -0.002,-282.932 -0.002,-296.027 z m -81.02,21.403 c 0.009,-0.023 0.017,-0.045 0.026,-0.068 0.014,-0.04 6.79869,-19.74133 5.86354,-16.52609 l 49.57714,-0.90263 0.0232,124.27684 L 343.237,321.313 C 360.19,289.228 379.323,250.328 392.033,216.16 Z M 256.76503,24.789285 c 67.658,0 143.31662,79.336655 116.25162,161.819655 -19.504,59.443 -84.27962,181.67937 -116.25162,235.51537 -31.877,-53.684 -99.81774,-182.99265 -119.31974,-242.41865 C 110.31829,97.017658 189.26703,24.789285 256.76503,24.789285 Z M 167.03131,481.07447 H 66.802409 V 202.16544 l 46.189311,-1.53406 c 6.24,17.162 36.63372,86.30758 57.10772,126.38058 z m 28.62444,0 0.1316,-114.86083 c 20.309,35.423 42.02665,75.57736 42.22365,75.88936 8.304,13.275 27.675,13.267 35.973,0 0.202,-0.323 22.96765,-41.12113 44.24665,-78.39113 l 115.60664,119.62115 z m 251.88946,-15.13703 -116.19858,-119.92821 116.29164,0.1316 z"
   id="path4"
   inkscape:connector-curvature="0"
   sodipodi:nodetypes="sscscssssccscscccccccscccsccccccccccccccccc" />
</g>
</svg>