<svg width="40" height="40" viewBox="0 0 40 40" fill="none" xmlns="http://www.w3.org/2000/svg">
<path fill-rule="evenodd" clip-rule="evenodd" d="M29.3387 8H10.6613C10.2961 8 10 8.29848 10 8.66667V31.3333C10 31.7015 10.2961 32 10.6613 32H29.3387C29.7039 32 30 31.7015 30 31.3333V8.66667C30 8.29848 29.7039 8 29.3387 8ZM11.3233 9.33301H25.8699V30.6663H11.3233V9.33301ZM28.6772 30.6663H27.1918V9.33301H28.6772V30.6663ZM23.0574 12.0957H14.1354C13.7701 12.0957 13.474 12.3942 13.474 12.7624V17.8024C13.474 18.1706 13.7701 18.469 14.1354 18.469H23.0574C23.4226 18.469 23.7187 18.1706 23.7187 17.8024V12.7624C23.7187 12.3942 23.4226 12.0957 23.0574 12.0957ZM22.3967 17.1354H14.7973V13.4287H22.3967V17.1354ZM22.5069 24.3424C22.5069 24.7106 22.2108 25.0091 21.8456 25.0091H15.3463C14.9811 25.0091 14.685 24.7106 14.685 24.3424C14.685 23.9743 14.9811 23.6758 15.3463 23.6758H21.8456C22.2108 23.6758 22.5069 23.9743 22.5069 24.3424ZM21.7521 27.238C21.7521 27.6061 21.456 27.9046 21.0907 27.9046H16.102C15.7367 27.9046 15.4406 27.6061 15.4406 27.238C15.4406 26.8698 15.7367 26.5713 16.102 26.5713H21.0907C21.456 26.5713 21.7521 26.8698 21.7521 27.238Z" fill="black"/>
</svg>
