<svg version="1.1" id="Capa_1" xmlns="http://www.w3.org/2000/svg" xmlns:xlink="http://www.w3.org/1999/xlink" x="0px" y="0px"
	 viewBox="0 0 490.128 490.128" style="enable-background:new 0 0 490.128 490.128;" xml:space="preserve">
<g>
	<path d="M388.089,238.332c-2.602-2.857-64.6-69.979-143.024-69.979s-140.423,67.121-143.024,69.979
		c-3.473,3.816-3.473,9.648,0,13.463c2.602,2.857,64.6,69.98,143.024,69.98s140.423-67.123,143.024-69.98
		C391.561,247.98,391.561,242.148,388.089,238.332z M245.064,293.707c-26.821,0-48.643-21.822-48.643-48.643
		c0-26.822,21.821-48.643,48.643-48.643s48.643,21.82,48.643,48.643C293.707,271.884,271.886,293.707,245.064,293.707z
		 M194.512,198.687c-11.225,12.225-18.09,28.512-18.09,46.377s6.865,34.152,18.09,46.377
		c-33.014-13.092-59.146-35.281-70.908-46.377C135.37,233.964,161.502,211.777,194.512,198.687z M295.617,291.441
		c11.225-12.225,18.09-28.514,18.09-46.377c0-17.865-6.865-34.152-18.09-46.377c33.014,13.09,59.147,35.279,70.908,46.377
		C354.759,256.164,328.627,278.351,295.617,291.441z"/>
	<path d="M466.028,139.384C437.8,80.363,388.277,35.865,326.582,14.091C300.21,4.783,272.783,0.064,245.064,0.064
		c-103.639,0-196.46,65.697-230.973,163.48C-7.683,225.24-4.129,291.722,24.1,350.744s77.752,103.518,139.447,125.293
		c26.372,9.307,53.799,14.027,81.518,14.027c103.641,0,196.462-65.699,230.973-163.482
		C497.811,264.886,494.257,198.406,466.028,139.384z M245.064,74.38c94.115,0,170.684,76.568,170.684,170.684
		S339.18,415.746,245.064,415.746c-94.115,0-170.684-76.566-170.684-170.682S150.949,74.38,245.064,74.38z M235.064,20.296v34.352
		C160,58.546,96.289,106.056,68.837,172.263l-32.341-11.416C69.413,79.322,147.281,24.207,235.064,20.296z M245.064,470.064
		c-25.445,0-50.633-4.336-74.861-12.889c-56.658-19.996-102.137-60.859-128.06-115.061C17.662,290.929,13.4,233.638,29.839,179.707
		l32.326,11.41c-5.057,17.113-7.784,35.217-7.784,53.947c0,105.143,85.54,190.682,190.684,190.682
		c52.098,0,99.375-21.008,133.826-54.99l26.586,21.922C364.029,444.812,306.629,470.064,245.064,470.064z M457.178,319.925
		c-8.882,25.166-21.971,48.016-38.305,67.875l-26.471-21.826c27.071-32.928,43.346-75.055,43.346-120.91
		c0-101.789-80.17-185.203-180.684-190.422v-34.35c22.038,0.986,43.812,5.231,64.861,12.658
		C436.885,74.23,498.455,202.966,457.178,319.925z"/>
</g>
</svg>
