<svg width="40" height="40" viewBox="0 0 40 40" fill="none" xmlns="http://www.w3.org/2000/svg">
<path fill-rule="evenodd" clip-rule="evenodd" d="M25.2911 6.00012C29.0555 6.07052 32.1685 10.3611 30.3867 14.1691L31.2968 14.4891C31.6719 14.6363 31.7231 14.6913 31.8664 14.8078C32.4091 15.2468 32.6818 15.9956 32.5397 16.6856C32.5167 16.8008 32.5051 16.8276 32.4693 16.939L27.2443 31.7678C27.0971 32.1428 27.0421 32.194 26.9256 32.3374C26.4866 32.8801 25.7378 33.1515 25.0479 33.0107C24.9327 32.9864 24.9058 32.9748 24.7944 32.9403L21.2463 31.6897C20.8431 31.5323 20.7483 31.4452 20.5717 31.2788C19.7397 30.5006 19.8767 29.0849 20.8021 28.2849C21.917 27.3006 21.236 24.9518 19.5183 24.9953C18.4149 25.0222 17.4613 26.1524 17.7365 27.3172C17.7365 27.3172 17.8978 28.0891 17.5266 28.7252C17.1247 29.4152 16.2696 29.7992 15.485 29.6404C15.3698 29.6161 15.3416 29.6046 15.2303 29.5688L11.7243 28.3336C11.3493 28.1876 11.2981 28.1313 11.1547 28.0161C10.612 27.5771 10.3394 26.8283 10.4815 26.1371C10.5045 26.0232 10.516 25.9963 10.5519 25.8849L11.7231 22.5608C11.2072 22.3867 10.173 21.8644 9.46259 21.1323C6.81555 18.4059 7.84851 12.9441 11.8575 11.6884C13.0389 11.3185 14.333 11.348 15.5119 11.7691L15.8255 10.9332C15.997 10.5697 16.0559 10.5224 16.1813 10.388C16.6856 9.84396 17.5074 9.65708 18.2267 9.88364L19.6578 10.388C19.7819 9.8798 19.8127 9.84012 19.9035 9.61228C20.7458 7.48492 22.9487 5.98476 25.2911 6.00012ZM25.1746 7.92012C22.7144 7.96492 20.7215 10.69 21.6994 13.1425L17.588 11.6936L16.5115 14.7502C15.0575 12.9723 11.8805 12.9966 10.4891 14.9128C9.26675 16.596 9.75059 19.2878 11.604 20.4014C12.4207 20.8916 13.4229 21.058 14.3586 20.8596L12.3618 26.5236L15.8677 27.7588C15.3352 25.506 17.3154 22.9883 19.7026 23.0766C21.7992 23.1547 23.6219 25.2321 23.3263 27.3889C23.1919 28.3617 22.6645 29.2718 21.885 29.8785L25.4331 31.1291L30.6594 16.3003L27.069 15.0356C29.1336 13.8708 29.6149 10.626 27.8114 8.94028C27.1048 8.2798 26.1435 7.91372 25.1746 7.92012Z" fill="black"/>
</svg>
