<svg width="24" height="24" viewBox="0 0 24 24" fill="none" xmlns="http://www.w3.org/2000/svg">
<path fill-rule="evenodd" clip-rule="evenodd" d="M16.8 17.9998H7.2C6.5384 17.9998 6 17.4614 6 16.7998V7.9998C6 7.3382 6.4488 6.7998 7 6.7998H7.6V7.5998H7C6.9312 7.5998 6.8 7.7558 6.8 7.9998V16.7998C6.8 17.0202 6.9796 17.1998 7.2 17.1998H16.8C17.0204 17.1998 17.2 17.0202 17.2 16.7998V7.9998C17.2 7.7558 17.0688 7.5998 17 7.5998H16.4V6.7998H17C17.5512 6.7998 18 7.3382 18 7.9998V16.7998C18 17.4614 17.4616 17.9998 16.8 17.9998Z" fill="#A8A8A8"/>
<path fill-rule="evenodd" clip-rule="evenodd" d="M8.80039 8.4C8.57959 8.4 8.40039 8.2208 8.40039 8V6.4C8.40039 6.1792 8.57959 6 8.80039 6C9.02119 6 9.20039 6.1792 9.20039 6.4V8C9.20039 8.2208 9.02119 8.4 8.80039 8.4Z" fill="#A8A8A8"/>
<path fill-rule="evenodd" clip-rule="evenodd" d="M15.1998 8.4C14.979 8.4 14.7998 8.2208 14.7998 8V6.4C14.7998 6.1792 14.979 6 15.1998 6C15.4206 6 15.5998 6.1792 15.5998 6.4V8C15.5998 8.2208 15.4206 8.4 15.1998 8.4Z" fill="#A8A8A8"/>
<path fill-rule="evenodd" clip-rule="evenodd" d="M10 6.7998H14V7.5998H10V6.7998Z" fill="#A8A8A8"/>
<path fill-rule="evenodd" clip-rule="evenodd" d="M6.7998 9.2002H17.1998V10.0002H6.7998V9.2002Z" fill="#A8A8A8"/>
<path fill-rule="evenodd" clip-rule="evenodd" d="M15.5996 10.7998H16.3996V11.5998H15.5996V10.7998Z" fill="#A8A8A8"/>
<path fill-rule="evenodd" clip-rule="evenodd" d="M14 10.7998H14.8V11.5998H14V10.7998Z" fill="#A8A8A8"/>
<path fill-rule="evenodd" clip-rule="evenodd" d="M12.4004 10.7998H13.2004V11.5998H12.4004V10.7998Z" fill="#A8A8A8"/>
<path fill-rule="evenodd" clip-rule="evenodd" d="M10.7998 10.7998H11.5998V11.5998H10.7998V10.7998Z" fill="#A8A8A8"/>
<path fill-rule="evenodd" clip-rule="evenodd" d="M9.2002 10.7998H10.0002V11.5998H9.2002V10.7998Z" fill="#A8A8A8"/>
<path fill-rule="evenodd" clip-rule="evenodd" d="M15.5996 12.4004H16.3996V13.2004H15.5996V12.4004Z" fill="#A8A8A8"/>
<path fill-rule="evenodd" clip-rule="evenodd" d="M14 12.4004H14.8V13.2004H14V12.4004Z" fill="#A8A8A8"/>
<path fill-rule="evenodd" clip-rule="evenodd" d="M12.4004 12.4004H13.2004V13.2004H12.4004V12.4004Z" fill="#A8A8A8"/>
<path fill-rule="evenodd" clip-rule="evenodd" d="M10.7998 12.4004H11.5998V13.2004H10.7998V12.4004Z" fill="#A8A8A8"/>
<path fill-rule="evenodd" clip-rule="evenodd" d="M9.2002 12.4004H10.0002V13.2004H9.2002V12.4004Z" fill="#A8A8A8"/>
<path fill-rule="evenodd" clip-rule="evenodd" d="M7.59961 12.4004H8.39961V13.2004H7.59961V12.4004Z" fill="#A8A8A8"/>
<path fill-rule="evenodd" clip-rule="evenodd" d="M15.5996 14H16.3996V14.8H15.5996V14Z" fill="#A8A8A8"/>
<path fill-rule="evenodd" clip-rule="evenodd" d="M14 14H14.8V14.8H14V14Z" fill="#A8A8A8"/>
<path fill-rule="evenodd" clip-rule="evenodd" d="M12.4004 14H13.2004V14.8H12.4004V14Z" fill="#A8A8A8"/>
<path fill-rule="evenodd" clip-rule="evenodd" d="M10.7998 14H11.5998V14.8H10.7998V14Z" fill="#A8A8A8"/>
<path fill-rule="evenodd" clip-rule="evenodd" d="M9.2002 14H10.0002V14.8H9.2002V14Z" fill="#A8A8A8"/>
<path fill-rule="evenodd" clip-rule="evenodd" d="M7.59961 14H8.39961V14.8H7.59961V14Z" fill="#A8A8A8"/>
<path fill-rule="evenodd" clip-rule="evenodd" d="M14 15.5996H14.8V16.3996H14V15.5996Z" fill="#A8A8A8"/>
<path fill-rule="evenodd" clip-rule="evenodd" d="M12.4004 15.5996H13.2004V16.3996H12.4004V15.5996Z" fill="#A8A8A8"/>
<path fill-rule="evenodd" clip-rule="evenodd" d="M10.7998 15.5996H11.5998V16.3996H10.7998V15.5996Z" fill="#A8A8A8"/>
<path fill-rule="evenodd" clip-rule="evenodd" d="M9.2002 15.5996H10.0002V16.3996H9.2002V15.5996Z" fill="#A8A8A8"/>
<path fill-rule="evenodd" clip-rule="evenodd" d="M7.59961 15.5996H8.39961V16.3996H7.59961V15.5996Z" fill="#A8A8A8"/>
</svg>
