<svg width="24" height="24" viewBox="0 0 24 24" fill="none" xmlns="http://www.w3.org/2000/svg">
<path fill-rule="evenodd" clip-rule="evenodd" d="M15.5156 14.0156L20.4844 18.9844L18.9844 20.4844L14.0156 15.5156V14.7188L13.7344 14.4375C12.5156 15.4688 11.1094 15.9844 9.51562 15.9844C7.70312 15.9844 6.16407 15.3516 4.89844 14.0859C3.63281 12.8203 3 11.2891 3 9.49219C3 7.6953 3.63281 6.16407 4.89844 4.89844C6.16407 3.63281 7.6953 3 9.49219 3C11.2891 3 12.8203 3.63281 14.0859 4.89844C15.3516 6.16407 15.9844 7.70312 15.9844 9.51562C15.9844 11.1094 15.4688 12.5156 14.4375 13.7344L14.7188 14.0156H15.5156ZM9.51562 14.0156C10.7656 14.0156 11.8281 13.5781 12.7031 12.7031C13.5781 11.8281 14.0156 10.7656 14.0156 9.51562C14.0156 8.26562 13.5781 7.20313 12.7031 6.32812C11.8281 5.45312 10.7656 5.01562 9.51562 5.01562C8.26562 5.01562 7.20313 5.45312 6.32812 6.32812C5.45312 7.20313 5.01562 8.26562 5.01562 9.51562C5.01562 10.7656 5.45312 11.8281 6.32812 12.7031C7.20313 13.5781 8.26562 14.0156 9.51562 14.0156Z" fill="#8D8D8D"/>
<mask id="mask0" style="mask-type:alpha" maskUnits="userSpaceOnUse" x="3" y="3" width="18" height="18">
<path fill-rule="evenodd" clip-rule="evenodd" d="M15.5156 14.0156L20.4844 18.9844L18.9844 20.4844L14.0156 15.5156V14.7188L13.7344 14.4375C12.5156 15.4688 11.1094 15.9844 9.51562 15.9844C7.70312 15.9844 6.16407 15.3516 4.89844 14.0859C3.63281 12.8203 3 11.2891 3 9.49219C3 7.6953 3.63281 6.16407 4.89844 4.89844C6.16407 3.63281 7.6953 3 9.49219 3C11.2891 3 12.8203 3.63281 14.0859 4.89844C15.3516 6.16407 15.9844 7.70312 15.9844 9.51562C15.9844 11.1094 15.4688 12.5156 14.4375 13.7344L14.7188 14.0156H15.5156ZM9.51562 14.0156C10.7656 14.0156 11.8281 13.5781 12.7031 12.7031C13.5781 11.8281 14.0156 10.7656 14.0156 9.51562C14.0156 8.26562 13.5781 7.20313 12.7031 6.32812C11.8281 5.45312 10.7656 5.01562 9.51562 5.01562C8.26562 5.01562 7.20313 5.45312 6.32812 6.32812C5.45312 7.20313 5.01562 8.26562 5.01562 9.51562C5.01562 10.7656 5.45312 11.8281 6.32812 12.7031C7.20313 13.5781 8.26562 14.0156 9.51562 14.0156Z" fill="white"/>
</mask>
<g mask="url(#mask0)">
</g>
</svg>
