<svg width="32" height="32" viewBox="0 0 32 32" fill="none" xmlns="http://www.w3.org/2000/svg">
<circle cx="16" cy="16" r="15.5" fill="white" stroke="#F5333F"/>
<path fill-rule="evenodd" clip-rule="evenodd" d="M19.4453 24.3918C19.4453 25.8877 20.6626 27.105 22.1585 27.105C23.6544 27.105 24.8717 25.8877 24.8717 24.3918C24.8717 22.8959 23.6553 21.6786 22.1595 21.6786C21.8082 21.6786 21.472 21.7485 21.1632 21.8713L18.5557 17.5168C19.3481 16.8453 19.8524 15.8443 19.8524 14.7233C19.8524 12.8478 18.4443 11.3047 16.6264 11.0866V9.38669C17.9126 9.1761 18.8986 8.05891 18.8986 6.71318C18.8986 5.21729 17.6822 4 16.1863 4C14.6904 4 13.4731 5.21729 13.4731 6.71318C13.4731 8.05891 14.4591 9.1761 15.7462 9.38669V11.0866C13.9293 11.3038 12.5203 12.8478 12.5203 14.7233C12.5203 15.8434 13.0236 16.8444 13.816 17.5168L11.2095 21.8713C10.9007 21.7485 10.5645 21.6786 10.2132 21.6786C8.71729 21.6786 7.5 22.8959 7.5 24.3918C7.5 25.8877 8.71729 27.105 10.2132 27.105C11.7091 27.105 12.9254 25.8877 12.9254 24.3918C12.9254 23.5636 12.5524 22.8213 11.964 22.3236L14.5526 18.0003C15.0455 18.2458 15.598 18.3875 16.1863 18.3875C16.7747 18.3875 17.3271 18.2458 17.8191 18.0003L20.4077 22.3236C19.8203 22.8213 19.4453 23.5636 19.4453 24.3918ZM16.2061 4.89844C17.2165 4.89844 18.0391 5.72004 18.0391 6.73146C18.0391 7.74288 17.2165 8.56543 16.2061 8.56543C15.1946 8.56543 14.373 7.74288 14.373 6.73146C14.373 5.72004 15.1946 4.89844 16.2061 4.89844ZM8.3999 24.412C8.3999 23.4005 9.22245 22.578 10.2339 22.578C11.2443 22.578 12.0669 23.4005 12.0669 24.412C12.0669 25.4224 11.2443 26.244 10.2339 26.244C9.22245 26.244 8.3999 25.4224 8.3999 24.412ZM16.2061 12.2353C14.8216 12.2353 13.7007 13.3581 13.7007 14.7426C13.7007 16.1261 14.8226 17.248 16.2061 17.248C17.5905 17.248 18.7115 16.1251 18.7115 14.7426C18.7124 13.3581 17.5905 12.2353 16.2061 12.2353ZM20.3462 24.412C20.3462 23.4005 21.1687 22.578 22.1792 22.578C23.1887 22.578 24.0122 23.4005 24.0122 24.412C24.0122 25.4224 23.1897 26.244 22.1792 26.244C21.1678 26.244 20.3462 25.4224 20.3462 24.412Z" fill="#F5333F"/>
<path fill-rule="evenodd" clip-rule="evenodd" d="M4.5 14.6911C4.5 12.7334 5.72768 11.1016 7.78169 11.1016C9.27851 11.1016 10.5355 11.8996 10.7177 13.4436H9.54672C9.43245 12.5427 8.64579 12.0809 7.78169 12.0809C6.31225 12.0809 5.69935 13.3756 5.69935 14.6911C5.69935 16.0066 6.31225 17.3014 7.78169 17.3014C9.00937 17.3212 9.68082 16.5817 9.70065 15.4211H7.87801V14.5089H10.7952V18.1173H10.0274L9.84514 17.3117C9.20202 18.0408 8.61746 18.2807 7.78263 18.2807C5.72768 18.2807 4.5 16.6488 4.5 14.6911Z" fill="#F5333F"/>
</svg>
