<?xml version="1.0" encoding="utf-8"?>
<!-- Generator: Adobe Illustrator 19.1.0, SVG Export Plug-In . SVG Version: 6.00 Build 0)  -->
<svg version="1.1" id="Layer_1" xmlns="http://www.w3.org/2000/svg" xmlns:xlink="http://www.w3.org/1999/xlink" x="0px" y="0px"
	 viewBox="-20 35.3 100 71.4" style="enable-background:new -20 35.3 100 71.4;" xml:space="preserve">
<style type="text/css">
	.st0{fill:#EE3224;}
</style>
<path class="st0" d="M30.5,43.5C27,40.2,7.2,28.7-20,40.4c0,0.2,0,3.4,0,8.4v55.8h41.2c1.4,1.2,4.8,2.1,8.7,2.1
	c3.9,0,7.3-0.9,8.7-2.1H80V48.8c0-4.9,0-8.2,0-8.4C53.9,29,33.1,41.1,30.5,43.5z M26.8,100.7c0-2.2-19.3-15.1-41.6-1V45.2
	c4.4-2.5,10.4-4.1,16.9-4.1c13.7,0,24.7,4.5,24.7,12.8V100.7z M75.2,99.6c-22.3-14-41.6-1.2-41.6,1V53.9c0-8.3,11.1-12.8,24.7-12.8
	c6.6,0,12.5,1.6,16.9,4.1V99.6z"/>
</svg>
