<?xml version="1.0" encoding="utf-8"?>
<!-- Generator: Adobe Illustrator 19.1.0, SVG Export Plug-In . SVG Version: 6.00 Build 0)  -->
<svg version="1.1" id="Layer_1" xmlns="http://www.w3.org/2000/svg" xmlns:xlink="http://www.w3.org/1999/xlink" x="0px" y="0px"
	 viewBox="-25 20.7 90.5 100" style="enable-background:new -25 20.7 90.5 100;" xml:space="preserve">
<style type="text/css">
	.st0{fill:#EE3224;}
</style>
<path class="st0" d="M28.8,20.7C8.5,20.7-7.9,37.2-7.9,57.4c0,20.3,16.4,36.7,36.7,36.7s36.7-16.4,36.7-36.7
	C65.5,37.2,49,20.7,28.8,20.7z M13.7,62.2c0-2.4,2-4.4,4.4-4.4c2.5,0,4.4,2,4.4,4.4c0,2.5-2,4.4-4.4,4.4
	C15.7,66.6,13.7,64.6,13.7,62.2z M28.3,88.3c-6.2,0-11.2-2.6-11.2-5.9h22.5C39.6,85.7,34.5,88.3,28.3,88.3z M39.4,66.6
	c-2.5,0-4.4-2-4.4-4.4c0-2.4,2-4.4,4.4-4.4c2.4,0,4.4,2,4.4,4.4C43.9,64.6,41.9,66.6,39.4,66.6z"/>
<path class="st0" d="M56.1,112c0,4.8-8.4,8.7-18.7,8.7c-10.3,0-16.4-4.7-18.7-8.7c-2.3-4,0,0,0,0c-3.1-3.7-5.9-6.4-9.1-8.4
	c-1.7,3.4-7.1,4.8-12.6,3.3c-6.1-1.7-10.1-6.4-8.9-10.4c0.1-0.2,0.2-0.3,0.2-0.5c-3.6-0.9-7.6-1.9-12.3-3.1
	c-0.7-0.2-1.1-0.9-0.9-1.5c0.2-0.7,0.9-1.1,1.5-0.9c9.9,2.6,7,1.9,12.8,3.8c2.3-2.4,6.9-3.3,11.7-1.9c5.8,1.7,9.7,6,9,9.9
	c4.5,2.4,8.1,5.1,10.3,7.9c0,0,0,0,0,0c0,0,0,0,0,0c0.8,0.5,7.4,4.7,17.2,4.7C47.8,114.8,56,112,56.1,112z"/>
<path class="st0" d="M31.6,113.3c-0.1,0.1-0.1,0.2-0.2,0.2c-0.1,0-0.2,0-0.3-0.1c0.2-0.5,0.6-1-0.3-1.4c0.6,0.3,1.2,0.1,1.8,0.4
	c0.4,0.1,0.4,0.7,1.1,0.6C33,113,32.3,113.2,31.6,113.3z"/>
<path class="st0" d="M37.1,112.1c-1.1-0.5-1.3-1.8-0.6-2.7c-0.2,0-0.4,0-0.7,0.1c0,0.4-0.1,1-0.3,1.6c-0.1,0.3,0.8,0.3,0.6,0.9
	c-0.2,0.8-1.1,1.3-1.9,1.3c0.2,0.2,0.6,0.5,0.9,0.8c0.1,0,0.2,0,0.4,0C35.4,113.5,36.4,112.4,37.1,112.1z"/>
<path class="st0" d="M39.7,113c0.2-0.2,0.3-0.7,0.5-0.9l0,0c-0.5-0.1-1-0.4-1.2-0.9c-0.1,0.2-0.2,0.4-0.4,0.6c0.9,0,1.5,0.8,0.7,1.5
	c0.4,0.3,0.6,0.4,0.8,0.7c0,0,0,0,0,0C40,113.7,39.8,113.3,39.7,113z"/>
<path class="st0" d="M29.6,110.3c-2.1-0.8,1.3-2.3,1.9-2.5c0.6-0.2,1.6,0,1.6,0.6c0,0.8-1.4,1.4-2.1,1.6c1.2,0.2,0.9-0.3,1.5-0.6
	c0.4-0.2,1.1-0.4,1.5-0.7c0.2-0.2,0.1-0.5,0.4-0.9c0.8-1,4.6-0.9,4,0.8c0.4,0.1,0.8,0.1,1.1,0c-0.6-1.5,1.9-1.4,2.8-1.3
	c1.6,0.2,0.9,1.7-0.2,1.3c0,0.2,0,0.3,0.1,0.5c1.1-0.5,2.1-1,2.9-0.4c0.6,0.5,0.8,1.2,0.5,1.7c0.2,0,0.3,0,0.5,0
	c-0.8-1.7,2-1.4,2.4-0.2c1.9-1.4,1.7,2,1.8,1.8c0-0.1,0.2,0.2,0.3,0.1c0,0,0.1,0.1,0.2,0.2c3.3-0.7,5.3-1.4,5.4-1.4
	c-2.4-2.3-8.3-5.8-18.6-5.8c-7.9,0-13.9,1.9-17.2,3.9c0.3,0.2,1.6,1,3.6,1.9c1-0.3,2.3-0.5,2.7-0.5c0.3-3.2,4.3,1.2,1.8,0.7
	c0.3,0.5,0.2,1-0.2,1.3c0.1,0,0.2,0.1,0.3,0.1c0.4-0.3,0.8-0.6,1.1-0.7C28.4,111.9,29.3,110.9,29.6,110.3z"/>
<path class="st0" d="M47.8,111.1c-0.1,0.5-0.1,0.7,0.2,1.2c0.2,0,0.5-0.1,0.7-0.2c-0.2-0.1-0.4-0.2-0.5-0.3
	C48.2,111.8,47.8,111.5,47.8,111.1z"/>
<path class="st0" d="M44.6,112.4c-1.2-0.5,0.5-1.8,0.5-1.7c-0.1-0.1-1.7,0.7-2.4,0.8c0.8-0.1,1.6,0.2,1.4,1.1c0.9-0.2,1.2,0.3,1.2,1
	c0,0,0,0,0.1,0C45.4,113,45.4,112.7,44.6,112.4z"/>
</svg>
