<?xml version="1.0" encoding="utf-8"?>
<!-- Generator: Adobe Illustrator 19.1.0, SVG Export Plug-In . SVG Version: 6.00 Build 0)  -->
<svg version="1.1" id="Layer_1" xmlns="http://www.w3.org/2000/svg" xmlns:xlink="http://www.w3.org/1999/xlink" x="0px" y="0px"
	 viewBox="-20 20.7 100 100" style="enable-background:new -20 20.7 100 100;" xml:space="preserve">
<style type="text/css">
	.st0{fill:#EE3224;}
</style>
<path class="st0" d="M49.1,27.3c-3.2-2.6-5.4-2-8.5,3.7c-2.1,3.7-5.4,4.2-7.5,4.1l0-0.7c2.4-1.2,4-3.6,4-6.4c0-4-3.2-7.2-7.2-7.2
	s-7.2,3.2-7.2,7.2c0,2.8,1.7,5.2,4,6.4l0,0.8c-2,0.1-5.4-0.3-7.5-4.1c-3.2-5.6-5.4-6.3-8.5-3.7C7.7,29.9-4.8,44.8-20,43.4
	c0,0,3,6.9,11.3,5.3c0,0,4.4,4.6,11.5,1.4c0,0,3.7,3.3,9.6,0.3c0,0,4.4,3.4,9.1,0.5c0,0,2.6,1.9,5.6,1.4l0.2,17.2
	c-0.3-0.1-0.6-0.1-1-0.2c0,0-5.1-1.1-10.5-2.6C10.6,65.4,4.9,63.2,4,62c0.1-0.1,0.2-0.1,0.3-0.2c0.5-0.2,1.3-0.5,2.2-0.7
	c1.9-0.4,4.5-0.6,7.1-0.7c5.2-0.2,6.1,0,6.2,0.1c0-0.2,3,0.4,3.8-2.7c0,0,0.1-0.2,0-0.2c-0.2-2.1-1.8-2.2-3.1-2.4
	c-2.1-0.3-1-0.2-3.9-0.1c-4.7,0.4-19.3-0.8-21.1,6.8c0,0.2,0,0.4,0,0.5C-3.9,69.1,9.9,72,20,74c-3.4,2.3-5.2,5.4-5.9,9.3
	c-0.3,4.2,3,8.1,10.7,12.6c-5.8,4.1-9.7,8-9.4,12.7c0.5,3.8,3.9,8.9,10.6,12.2c0,0,0,0,0,0c0,0,0,0,0,0c0,0-4.6-7.1-5-11
	c-0.3-2.3,1-5.6,6.6-9.6l0.2,14.2h0c0,1.2,1,2.2,2.1,2.2c1.2,0,2.1-1,2.1-2.2h0l0.2-13.8c5.2,3.9,6.4,7.1,6.1,9.3
	c-0.3,3.9-5,11-5,11c0,0,0,0,0,0c0,0,0,0,0,0c6.6-3.2,10-8.3,10.6-12.2c0.3-4.7-3.5-8.6-9.4-12.7c7.7-4.4,11-8.4,10.7-12.6
	c-0.7-3.9-2.5-6.9-5.9-9.3c10-2,23.8-4.9,24.4-11.6c0-0.2,0-0.3,0-0.5C62,54.2,47.4,55.4,42.7,55c-2.9,0-1.8-0.1-3.9,0.1
	c-1.3,0.2-2.9,0.3-3.1,2.4c-0.1,0.1,0,0.2,0,0.2c0.8,3,3.8,2.5,3.8,2.7c0.1,0,1-0.2,6.2-0.1c2.6,0.1,5.2,0.3,7.1,0.7
	c0.9,0.2,1.7,0.4,2.2,0.7c0.2,0.1,0.3,0.1,0.3,0.2c-0.8,1.1-6.5,3.4-11.7,4.7c-5.4,1.5-10.5,2.6-10.5,2.6c-0.1,0-0.2,0.1-0.4,0.1
	l0.2-17.1c3,0.5,5.6-1.4,5.6-1.4c4.7,2.9,9.1-0.5,9.1-0.5c5.9,3,9.6-0.3,9.6-0.3c7.1,3.2,11.5-1.4,11.5-1.4C77,50.3,80,43.4,80,43.4
	C64.8,44.8,52.3,29.9,49.1,27.3z M23.3,88.4c-1.9-1.2-2.8-2.8-2.6-3.9c0.1-1.5-0.4-5.1,6.7-7.7l0.2,14.2
	C26.1,90.3,24.7,89.4,23.3,88.4z M38.7,84.6c0.2,1.1-0.7,2.7-2.6,3.9c-1.3,0.8-2.5,1.6-3.7,2.3l0.2-13.7
	C39.1,79.7,38.6,83.1,38.7,84.6z"/>
</svg>
