<?xml version="1.0" encoding="utf-8"?>
<!-- Generator: Adobe Illustrator 19.1.0, SVG Export Plug-In . SVG Version: 6.00 Build 0)  -->
<svg version="1.1" id="Layer_1" xmlns="http://www.w3.org/2000/svg" xmlns:xlink="http://www.w3.org/1999/xlink" x="0px" y="0px"
	 viewBox="-21 20.7 98 100" style="enable-background:new -21 20.7 98 100;" xml:space="preserve">
<style type="text/css">
	.st0{fill:#EE3224;}
</style>
<path class="st0" d="M-5.8,117.9l-1.4-13.7c0-1.3,1.6-0.1,3.6-0.1l0,0c2,0,3.6-1.1,3.6,0.1l0,0L-1,117.5
	C-1,120.4-5.8,119.3-5.8,117.9z"/>
<path class="st0" d="M-11.6,73.4c-10-4.5-9.1-11.6-9.1-11.6c-1.3,2.5,1.4,24.3,11.8,24.3C-4.3,86.1-0.4,78.4-11.6,73.4z"/>
<path class="st0" d="M-11.6,58c-10-4.5-9.1-11.6-9.1-11.6c-1.3,2.5,1.4,24.3,11.8,24.3C-4.3,70.7-0.4,63-11.6,58z"/>
<path class="st0" d="M-11.6,43c-10-4.5-9.1-11.6-9.1-11.6C-22,34-19.3,55.8-8.9,55.8C-4.3,55.8-0.4,48.1-11.6,43z"/>
<path class="st0" d="M2.2,86.1c10.4,0,13-21.8,11.8-24.3c0,0,0.8,7.1-9.2,11.6C-6.3,78.4-2.4,86.1,2.2,86.1z"/>
<path class="st0" d="M-11.6,89.2c-10-4.5-9.1-11.6-9.1-11.6c-1.3,2.5,1.4,24.3,11.8,24.3C-4.3,101.9-0.4,94.2-11.6,89.2z"/>
<path class="st0" d="M2.2,101.9c10.4,0,13-21.8,11.8-24.3c0,0,0.8,7.1-9.2,11.6C-6.3,94.2-2.4,101.9,2.2,101.9z"/>
<path class="st0" d="M2.2,70.7c10.4,0,13-21.8,11.8-24.3c0,0,0.8,7.1-9.2,11.6C-6.3,63-2.4,70.7,2.2,70.7z"/>
<path class="st0" d="M2.2,55.8c10.4,0,13-21.8,11.8-24.3c0,0,0.8,7.1-9.2,11.6C-6.3,48.1-2.4,55.8,2.2,55.8z"/>
<path class="st0" d="M-2.6,44.2c11,0-0.6-23.5-0.6-23.5C-4.6,22.9-13.6,44.2-2.6,44.2z"/>
<path class="st0" d="M27.1,119.7l6.6-11.6l0,0c0.5-1.1-1.4-0.8-3.2-1.6l0,0c-1.8-0.9-2.8-2.5-3.3-1.4l-4.5,13
	C22.1,119.3,25.9,122.3,27.1,119.7z"/>
<path class="st0" d="M36.1,75.2c-7.1-8.3-3.4-14.4-3.4-14.4c-2.2,1.7-8.9,22.6,0.4,27C37.4,89.8,44.2,84.5,36.1,75.2z"/>
<path class="st0" d="M42.6,61.2c-7.1-8.3-3.4-14.3-3.4-14.3c-2.2,1.7-9,22.6,0.4,27C43.9,75.9,50.7,70.5,42.6,61.2z"/>
<path class="st0" d="M48.9,47.7c-7.1-8.2-3.4-14.3-3.4-14.3c-2.2,1.7-9,22.6,0.5,27C50.2,62.3,57,57,48.9,47.7z"/>
<path class="st0" d="M43.3,92.6c9.4,4.4,21-14.3,20.9-17.1c0,0-2.2,6.8-13.2,6.6C38.8,82,39.1,90.6,43.3,92.6z"/>
<path class="st0" d="M29.5,89.5c-7.1-8.3-3.4-14.3-3.4-14.3c-2.2,1.7-8.9,22.6,0.5,27C30.8,104.1,37.5,98.8,29.5,89.5z"/>
<path class="st0" d="M36.6,106.9c9.4,4.4,21-14.3,20.9-17.1c0,0-2.3,6.8-13.2,6.6C32.1,96.3,32.4,104.9,36.6,106.9z"/>
<path class="st0" d="M49.8,78.6c9.4,4.4,21-14.3,20.9-17.1c0,0-2.3,6.8-13.2,6.6C45.3,68,45.6,76.7,49.8,78.6z"/>
<path class="st0" d="M56.1,65c9.4,4.4,21-14.3,20.9-17.1c0,0-2.3,6.8-13.2,6.6C51.6,54.5,51.9,63.1,56.1,65z"/>
<path class="st0" d="M56.6,52.5c10,4.6,9.3-21.5,9.3-21.5C63.7,32.4,46.6,47.9,56.6,52.5z"/>
</svg>
