<?xml version="1.0" encoding="utf-8"?>
<!-- Generator: Adobe Illustrator 19.1.0, SVG Export Plug-In . SVG Version: 6.00 Build 0)  -->
<svg version="1.1" id="Layer_1" xmlns="http://www.w3.org/2000/svg" xmlns:xlink="http://www.w3.org/1999/xlink" x="0px" y="0px"
	 viewBox="-20 20.7 100 100" style="enable-background:new -20 20.7 100 100;" xml:space="preserve">
<style type="text/css">
	.st0{fill:#EE3224;}
</style>
<path class="st0" d="M80,79.3L80,79.3c-0.3,7.4-2.8,15.4-6.6,22.8c0,0-9.2,18.7-38.1,18.7c-28.9,0-38.3-18.5-38.3-18.5
	C-7,94.8-9.3,86.9-9.6,79.3h0c0-0.2,0-0.4,0-0.6c0-3.5,2.2-6.9,6-9.7l4,2.6c-2.5,1.7-3.9,3.5-3.9,5.5c0,7,17.3,12.7,38.7,12.7
	c21.4,0,38.7-5.7,38.7-12.7c0-4.8-8.3-9-20.5-11.2l0.1-5.1C69.1,63.9,80,70.8,80,78.7C80,78.9,80,79.1,80,79.3z"/>
<path class="st0" d="M5.3,49.2c-0.2,1.2-0.3,3.1,1.1,5.7c1.8,3.1,4.1,4.2,4.9,4.7c-0.1-0.8,0.1-3.2-1.6-6.2c-1.5-2.6-3.1-3.8-4-4.7
	c-2.7-3.9-5.7-7-8-9.4l-5.5-5.7c0,0,2,2.3,5.3,5.9C-0.3,42.1,2.7,45.3,5.3,49.2z"/>
<path class="st0" d="M19,79.4c1.2,1.1,2.7,2.9,6,4.7c3.7,2.1,6.8,2.1,7.9,2.3c-0.6-1-1.8-4-5.9-6.3c-3.3-1.8-5.8-1.5-7.4-1.2
	c-5-2.9-9.4-5.9-12.9-8.1c-5-3.1-8.2-4.6-8.2-4.6c0,0,3.1,1.7,8,5C9.8,73.3,14,76.4,19,79.4z"/>
<path class="st0" d="M22,63.3c-0.4,1.4-1,3.6,0.3,6.8c1.5,4,4.1,5.6,4.9,6.4c0-1,0.7-3.7-0.8-7.4c-1.3-3.3-3-5-3.9-6.2
	c-2.5-5-5.5-9.1-7.9-12.3L9,43l5.3,7.7C16.6,54.1,19.5,58.3,22,63.3z"/>
<path class="st0" d="M12.6,71.3c1.1,1,2.5,2.7,5.6,4.3c3.5,1.8,6.4,1.8,7.4,2c-0.6-0.9-1.8-3.7-5.6-5.7c-3.1-1.6-5.5-1.3-6.9-1
	C8.3,68.2,4.2,65.5,1,63.5c-4.7-2.8-7.7-4.2-7.7-4.2c0,0,2.9,1.6,7.5,4.5C3.9,65.9,7.9,68.6,12.6,71.3z"/>
<path class="st0" d="M5.9,63.4c1,0.9,2.4,2.4,5.3,3.9c3.3,1.6,5.9,1.5,6.9,1.7c-0.5-0.8-1.7-3.3-5.3-5.1c-2.9-1.5-5.1-1.1-6.4-0.8
	C1.9,60.6-1.9,58.1-5,56.4c-4.4-2.5-7.2-3.8-7.2-3.8c0,0,2.8,1.4,7,4.1C-2.2,58.5,1.5,61,5.9,63.4z"/>
<path class="st0" d="M-1,51.9c2,1.8,3.8,1.9,4.9,2.2c-0.2-0.9,0-3-2.3-5c-1.9-1.6-3.8-1.8-4.8-1.8c-7.9-6.7-14.8-11.1-16.4-12.1
	l-0.4-0.2c-0.1,0.1,7.6,5.1,16.6,13C-3.1,48.9-2.6,50.5-1,51.9z"/>
<path class="st0" d="M-1.1,55.6c1,0.8,2.2,2.2,4.9,3.5c3,1.5,5.5,1.3,6.3,1.5c-0.5-0.7-1.6-3-4.9-4.6c-2.7-1.3-4.7-1-5.9-0.7
	c-4.1-2.1-7.6-4.4-10.5-6c-4-2.3-6.7-3.5-6.7-3.5c0,0,2.6,1.3,6.5,3.7C-8.6,51.1-5.2,53.4-1.1,55.6z"/>
<path class="st0" d="M13.8,56c-0.3,1.3-0.7,3.3,0.7,6.2c1.7,3.6,4.2,4.9,4.9,5.5c-0.1-0.9,0.4-3.5-1.2-6.8c-1.4-3-3-4.4-4-5.4
	c-2.6-4.4-5.6-8-8-10.8l-5.6-6.6L6,44.9C8.3,47.8,11.3,51.6,13.8,56z"/>
<path class="st0" d="M44.8,63.6c-0.9,0.9-2.3,2.3-2.7,5.3c-0.6,3.6,0.7,6,0.9,6.8c0.4-0.7,2.1-2.5,2.7-6c0.5-3.1-0.1-5-0.3-6.3
	c0.2-4.8-0.3-9.2-0.7-12.6c-0.6-5-1-8-1-8l0.7,8.1C44.7,54.3,45.1,58.8,44.8,63.6z"/>
<path class="st0" d="M41.9,55.4c-0.8,0.9-2,2.3-2.2,5.1c-0.3,3.4,1,5.5,1.3,6.3c0.3-0.7,1.8-2.5,2.1-5.7c0.2-2.9-0.4-4.6-0.7-5.8
	c-0.1-4.5-0.8-8.5-1.4-11.6l-1.4-7.4l1.1,7.4C41.3,46.9,42,50.9,41.9,55.4z"/>
<path class="st0" d="M38.6,47.4C38,48.2,37,49.6,37,52.2c0,3.2,1.3,5,1.6,5.7c0.3-0.7,1.5-2.4,1.5-5.4c0-2.6-0.6-4.2-1-5.3
	c-0.3-4.1-1.2-7.7-1.9-10.6l-1.7-6.7l1.4,6.7C37.5,39.6,38.4,43.3,38.6,47.4z"/>
<path class="st0" d="M44.4,84.8c0.5-0.7,2.5-2.5,3.3-6.2c0.7-3.2,0.3-5.4,0.1-6.8c0.6-5.1,0.3-9.9,0.1-13.6
	c-0.3-5.4-0.6-8.7-0.6-8.7l0.3,8.7c0.1,3.7,0.3,8.6-0.4,13.7c-1,0.9-2.6,2.3-3.3,5.5C43.1,81.3,44.2,83.8,44.4,84.8z"/>
<path class="st0" d="M28,42.1c0.4,0.9,0.8,2.4,2.3,4.2c1.6,2.1,3.5,2.8,4,3.2c-0.1-0.7-0.1-2.7-1.9-5c-1.5-1.9-3-2.3-4-2.5
	c-2.2-2.9-4-5.8-5.4-7.9c-2.1-3.1-3.6-4.8-3.6-4.8c0,0,1.4,1.8,3.4,4.9C24.2,36.4,25.8,39.2,28,42.1z"/>
<path class="st0" d="M29.4,39.5c0.8,1.9,2.1,2.6,2.8,3.2c0.1-0.7,1-2.2,0.1-4.4c-0.8-1.8-2.2-2.6-2.8-2.9c-3.3-7.5-6.8-13-7.6-14.3
	l-0.2-0.3c-0.1,0,3.7,6.3,7.4,15.1C28.9,36.6,28.7,37.9,29.4,39.5z"/>
<path class="st0" d="M32.7,54.8c1.8,2.3,3.8,3.1,4.3,3.5c-0.1-0.8,0-3-2-5.5c-1.6-2-3.3-2.5-4.3-2.7c-2.4-3.2-4.3-6.3-5.8-8.6
	c-2.3-3.3-3.8-5.2-3.8-5.2c0,0,1.5,2,3.6,5.3c1.5,2.3,3.2,5.4,5.5,8.6C30.7,51.2,31.1,52.7,32.7,54.8z"/>
<path class="st0" d="M34.9,39.6c-0.5,0.8-1.3,2.2-1.2,4.5c0.2,2.9,1.5,4.5,1.8,5.1c0.2-0.6,1.2-2.3,1-5c-0.1-2.4-0.9-3.8-1.2-4.8
	c-0.6-3.7-1.7-7-2.4-9.5l-1.9-6c0,0,0.6,2.3,1.7,6.1C33.3,32.5,34.4,35.8,34.9,39.6z"/>
<path class="st0" d="M32.3,58.2c0.4,1.1,0.9,2.8,2.5,5c1.9,2.5,4,3.4,4.6,3.9c-0.1-0.8,0-3.3-2-6c-1.7-2.3-3.5-2.8-4.6-3
	c-2.5-3.5-4.5-6.9-6.1-9.4c-2.4-3.6-4.1-5.7-4.1-5.7c0,0,1.6,2.1,3.8,5.8C28,51.3,29.9,54.7,32.3,58.2z"/>
<path class="st0" d="M8.1,80.2c0,0,2.8,1.6,7.1,4.6c0.3,0.1,0.6,0.1,0.9,0.2C11.2,81.8,8,80.2,8.1,80.2z"/>
<path class="st0" d="M42.6,86.3c-0.6-1-1.3-1.8-2-2.3c-0.2-0.6-0.5-1.2-0.7-1.7c1.5,1.5,2.8,2.2,3.3,2.7c0-0.1,0-0.2,0-0.2
	c0.2,0.6,0.4,1.2,0.5,1.8c0.3,0,0.6,0,0.8-0.1c-0.5-1.7-1.1-3.4-1.7-5c-0.2-0.8-0.6-1.8-1.1-2.8c-0.5-1.3-1.1-2.5-1.6-3.6
	c0.7,0.4,1.2,0.7,1.5,1c-0.1-0.9,0.1-3.5-2-6.6c-1.3-1.8-2.6-2.5-3.7-3l-3.4-6.6c0,0,1.1,2.4,3,6.5c-0.3-0.1-0.6-0.2-0.8-0.2
	c-2.6-3.8-4.7-7.5-6.4-10.2C25.8,52,24,49.7,24,49.7c0,0,1.7,2.3,4,6.3c1.6,2.7,3.6,6.4,6.1,10.2c0.5,1.2,0.9,3,2.6,5.4
	c0.8,1.1,1.7,2,2.4,2.6c0.3,0.7,0.6,1.4,0.9,2.1c-1.5-1.5-2.9-1.9-3.9-2.2c-0.3-0.4-0.6-0.9-0.8-1.3c-1.7-3.6-3.5-6.8-5-9.5
	c-3.3-5.8-5.5-9.4-5.5-9.4l5.1,9.6c0.4,0.7,0.8,1.5,1.2,2.3c-0.6-1-1.1-1.9-1.6-2.7c-2.6-4.2-4.5-6.6-4.5-6.6c0,0,1.7,2.5,4.2,6.8
	c1.4,2.5,3.1,5.8,5.2,9.2c0.9,2,1.8,4.2,2.6,6.5c-0.2,0.5-0.4,1-0.7,1.7c-2.3-3.9-4.2-7.6-5.8-10.4c-0.5-0.9-1-1.7-1.5-2.5
	c-2.1-4.3-4.5-8-6.5-11c-3.4-5.2-5.6-8.5-5.6-8.5l5.2,8.6c2.2,3.7,5.2,8.5,7.4,14c-0.5,1.4-1.3,3.8-0.2,7.3c1.4,4.4,4,6.3,4.8,7.2
	c0.1-1,0.9-3.6-0.1-7.3c0.6,1.1,1.2,2.3,1.9,3.5c-0.3,1.3-0.4,3,0.2,5.2c2.2,0,4.3-0.1,6.4-0.2C42.6,86.5,42.6,86.4,42.6,86.3z"/>
<path class="st0" d="M12.1,78.2c-5.3-3.4-8.7-5.1-8.7-5.1c0,0,3.3,1.9,8.5,5.4c3,2.1,6.6,4.8,10.8,7.5c0.5,0.1,1,0.1,1.6,0.1
	C19.5,83.3,15.4,80.4,12.1,78.2z"/>
<path class="st0" d="M50,80.3c1-5.5,0.9-10.6,0.9-14.6l-0.2-9.4c0,0-0.1,3.6-0.2,9.4c-0.1,4-0.2,9.2-1.3,14.7
	c-1.1,0.9-2.9,2.3-3.9,5.7c0,0.1,0,0.2-0.1,0.3c1.5-0.1,3-0.3,4.4-0.5C50.2,83.4,50,81.6,50,80.3z"/>
</svg>
