<?xml version="1.0" encoding="utf-8"?>
<!-- Generator: Adobe Illustrator 19.1.0, SVG Export Plug-In . SVG Version: 6.00 Build 0)  -->
<svg version="1.1" id="Layer_1" xmlns="http://www.w3.org/2000/svg" xmlns:xlink="http://www.w3.org/1999/xlink" x="0px" y="0px"
	 viewBox="-34 20.7 71.4 100" style="enable-background:new -34 20.7 71.4 100;" xml:space="preserve">
<style type="text/css">
	.st0{fill:#EE3224;}
</style>
<path class="st0" d="M37.4,32.3c0-0.5-0.5-1-1.5-1.2l-2.1-0.7c-2.3-0.9-3.8-1.3-4.3-1.3c-0.1,0-0.5,0.1-1.3,0.3
	c-0.8,0.2-1.9,0.6-3.5,1.1c-0.1,0.1-1,0.2-2.7,0.6c-1.7,0.3-4.2,0.8-7.5,1.5l-32.9-11.7c-0.1-0.1-0.3-0.1-0.7-0.1
	c-1.2,0-2.2,0.6-3,1.7l21,12.9l-7.1,1.4l-6.1-4.9l-1.7,0.3v3.8l-7.1-2.7l-1.3,0.8l6.2,5.5v0.3c0,1,0.7,1.5,2,1.5l3.1,3.8l1.5-0.5
	l0.5-2.8H5.5l3.4,2.6v8.3H12L18.3,39c2.1-0.3,4.4-0.8,6.7-1.3c2.4-0.5,4.9-1.1,7.6-1.6c0.5-0.2,1-0.5,1.6-0.8c0.6-0.3,1.1-0.6,1.6-1
	c0.5-0.3,0.9-0.7,1.2-1C37.3,32.9,37.4,32.6,37.4,32.3z"/>
<path class="st0" d="M24.9,103.2H24v-2.3c0-4.2-0.2-8.1-0.8-11.6c0-0.1,0-0.1,0-0.2V65.8h-1.4v-5.4h-1.9v5.4h-1.4v15.9
	c-0.3-0.2-0.7-0.4-1-0.6V64.8c0-1.3-6.3-5.5-21.5-5.5c-15.2,0-21.4,4.1-21.4,5.5v16.4c-2.9,1.6-4.8,4.3-5.5,8.1
	c-0.5,3.5-0.8,7.4-0.8,11.6v2.3h-0.9c-0.9,0-1.4,1.3-1.4,3.8c0,2.5,0.5,3.7,1.4,3.7h5.9v1.2c0,1.7,0.1,3.1,0.2,4.2
	c0.1,1.1,0.3,2,0.5,2.7c0.8,1.3,2.2,1.9,4.2,1.9c2,0,3.3-0.6,4.1-1.9c0.5-1,0.8-3.1,0.8-6.1v-1.9H9.2v1.9c0,3.1,0.3,5.1,0.8,6.1
	c0.8,1.3,2.1,1.9,4.1,1.9c2.1,0,3.5-0.6,4.2-1.9c0.2-0.7,0.3-1.6,0.4-2.7c0.1-1.1,0.2-2.5,0.2-4.2v-1.2h5.9c0.9,0,1.4-1.2,1.4-3.7
	C26.3,104.4,25.8,103.2,24.9,103.2z M-20.8,98.6c-2.1,0-3.8-1.7-3.8-3.8c0-2.1,1.7-3.8,3.8-3.8c2.1,0,3.8,1.7,3.8,3.8
	C-16.9,96.8-18.7,98.6-20.8,98.6z M-18.4,81.4c-1.3,0-2.4-1.1-2.4-2.4v-5.5c0-1.3,1-2.5,2.4-3.2c0,0,5.9-2,14.6-2
	c8.7,0,14.6,2,14.6,2c1.9,0.9,2.4,2.6,2.4,3.9V79c0,1.3-1.1,2.4-2.4,2.4H-18.4z M6.2,99.1H-14c-0.4,0-0.7-0.3-0.7-0.7
	s0.3-0.7,0.7-0.7H6.2c0.4,0,0.7,0.3,0.7,0.7S6.6,99.1,6.2,99.1z M6.2,95.3H-14c-0.4,0-0.7-0.3-0.7-0.7c0-0.4,0.3-0.7,0.7-0.7H6.2
	c0.4,0,0.7,0.3,0.7,0.7C6.9,95,6.6,95.3,6.2,95.3z M6.2,91.4H-14c-0.4,0-0.7-0.3-0.7-0.7c0-0.4,0.3-0.7,0.7-0.7H6.2
	c0.4,0,0.7,0.3,0.7,0.7C6.9,91.1,6.6,91.4,6.2,91.4z M13,98.6c-2.1,0-3.8-1.7-3.8-3.8c0-2.1,1.7-3.8,3.8-3.8s3.8,1.7,3.8,3.8
	C16.8,96.8,15.1,98.6,13,98.6z"/>
</svg>
