<?xml version="1.0" encoding="utf-8"?>
<!-- Generator: Adobe Illustrator 19.1.0, SVG Export Plug-In . SVG Version: 6.00 Build 0)  -->
<svg version="1.1" id="Layer_1" xmlns="http://www.w3.org/2000/svg" xmlns:xlink="http://www.w3.org/1999/xlink" x="0px" y="0px"
	 viewBox="-20 30.8 100 80.9" style="enable-background:new -20 30.8 100 80.9;" xml:space="preserve">
<style type="text/css">
	.st0{fill:#EE3224;}
</style>
<g>
	<path class="st0" d="M16,62.1c0,2.5-2.1,4.6-4.6,4.6c-2.5,0-4.6-2.1-4.6-4.6c0-2.5,2.1-4.6,4.6-4.6C13.9,57.5,16,59.6,16,62.1z"/>
	<path class="st0" d="M11.9,93.7l1,17c0,0.6,0.5,1.1,1.1,1.1c0.6,0,1.1-0.5,1.1-1.1l0.9-17h3l-3.1-19.1l6.3,12.5
		c0.2,0.6,0.9,0.8,1.4,0.6c0.5-0.2,0.8-0.9,0.6-1.4c0,0-4.6-12.4-5.7-14.7c-1.1-2.3-2.2-3.7-6.5-3.7H11c-4.3,0-5.4,1.4-6.5,3.7
		c-1.1,2.3-5.7,14.7-5.7,14.7c-0.2,0.5,0,1.2,0.6,1.4c0.6,0.2,1.2,0,1.4-0.6l6.3-12.5L3.8,93.7h3l0.9,17c0,0.6,0.5,1.1,1.1,1.1
		c0.6,0,1.1-0.5,1.1-1.1l0.9-17L11.9,93.7L11.9,93.7z"/>
</g>
<g>
	<path class="st0" d="M48.6,57.5c-2.6,0-4.6,2.1-4.6,4.6c0,2.5,2.1,4.6,4.6,4.6c2.5,0,4.6-2.1,4.6-4.6
		C53.2,59.5,51.2,57.5,48.6,57.5z"/>
	<path class="st0" d="M53.4,84.6l0.3-10L59.3,87c0.2,0.6,0.9,0.8,1.4,0.6c0.5-0.2,0.8-0.9,0.6-1.4c0,0-4-12.4-5.1-14.7
		s-2.9-3.7-7.2-3.7h-0.9c-4.3,0-6.1,1.4-7.2,3.7c-1.1,2.3-5.1,14.7-5.1,14.7c-0.2,0.6,0,1.2,0.6,1.4c0.5,0.2,1.2,0,1.4-0.6l5.6-12.5
		l0.3,10l-0.9,25.2c-0.1,1,0.7,1.9,1.7,1.9c0,0,0.1,0,0.1,0c1,0,1.7-0.7,1.8-1.7l2-19.5l2.1,19.5c0.1,0.9,0.9,1.7,1.8,1.7
		c0,0,0.1,0,0.1,0c1-0.1,1.7-0.9,1.7-1.9L53.4,84.6C53.4,84.6,53.4,84.6,53.4,84.6z"/>
</g>
<g>
	<path class="st0" d="M30,85.5c-1.6,0-2.8,1.3-2.8,2.8c0,1.6,1.3,2.8,2.8,2.8c1.6,0,2.8-1.3,2.8-2.8C32.8,86.8,31.6,85.5,30,85.5z"
		/>
	<path class="st0" d="M30,102.1c0,0,1.3,8.8,1.3,8.8c0.2,0.4,0.6,0.7,1.1,0.7c0.5,0,0.9-0.3,1.1-0.8c0,0,0-0.5,0-0.6l-0.5-10.9
		l0.2-3.7c0.2-1.3,0.2-0.9,1.6-1.8c1.5-0.9,4-4.8,4.1-5c0.1-0.2,0.4-0.5,0.4-0.8c0.1-0.4-0.2-0.8-0.6-0.8c-0.3-0.1-0.5,0.1-0.7,0.3
		c-0.2,0.2-3.1,4-5.2,4.4c-0.5-0.1-1-0.3-2.4-0.3h-0.5c-1.4,0-1.9,0.2-2.4,0.3c-2.2-0.4-5-4.2-5.2-4.4c-0.2-0.2-0.4-0.4-0.7-0.3
		c-0.4,0.1-0.6,0.4-0.6,0.8c0,0.2,0.3,0.6,0.4,0.8c0.1,0.2,2.6,4.1,4.1,5c1.4,0.9,1.5,0.5,1.6,1.8l0.2,3.7l-0.5,10.9
		c0,0.1,0,0.6,0,0.6c0.2,0.5,0.6,0.8,1.1,0.8c0.5,0,0.9-0.3,1.1-0.7C28.7,111,30,102.1,30,102.1"/>
</g>
<path class="st0" d="M79.2,67.5c1.4-2,0.9-4.7-1.1-6.1L37.3,33c-4.2-2.9-10.5-2.9-14.7,0l-40.8,28.4c-2,1.4-2.5,4.1-1.1,6.1
	c1.4,2,4.1,2.5,6.1,1.1l40.8-28.4c1.1-0.8,3.5-0.8,4.6,0l40.8,28.4c0.8,0.5,1.7,0.8,2.5,0.8C77,69.4,78.4,68.7,79.2,67.5z"/>
</svg>
