<?xml version="1.0" encoding="utf-8"?>
<!-- Generator: Adobe Illustrator 19.1.0, SVG Export Plug-In . SVG Version: 6.00 Build 0)  -->
<svg version="1.1" id="Layer_1" xmlns="http://www.w3.org/2000/svg" xmlns:xlink="http://www.w3.org/1999/xlink" x="0px" y="0px"
	 viewBox="-20 26.3 100 90.5" style="enable-background:new -20 26.3 100 90.5;" xml:space="preserve">
<style type="text/css">
	.st0{fill:#EE3224;}
</style>
<path class="st0" d="M-3.5,61l23,23.6v32.1h-0.2v0.1H0.5v-13.8l-19.2-25.4c-0.8-0.9-1.3-2.1-1.3-3.4v-39c0-3.1,2.5-5.5,5.5-5.5
	c3,0,5.5,2.5,5.5,5.5v22.5c-1.3,0.3-2.6,0.9-3.6,1.9c-2.9,2.9-3,7.6-0.1,10.5l10.5,10.8l1.4-1.4l-10.5-10.8
	c-2.1-2.2-2.1-5.6,0.1-7.8c0.7-0.6,1.5-1.1,2.3-1.3c0.9-0.3,1.9-0.3,2.8-0.1C-5.1,59.7-4.2,60.2-3.5,61z"/>
<path class="st0" d="M63.5,61l-23,23.6v32.1h0.2v0.1h18.9v-13.8l19.2-25.4c0.8-0.9,1.3-2.1,1.3-3.4v-39c0-3.1-2.5-5.5-5.5-5.5
	c-3,0-5.5,2.5-5.5,5.5v22.5c1.3,0.3,2.6,0.9,3.6,1.9c2.9,2.9,3,7.6,0.1,10.5L62.2,80.8l-1.4-1.4l10.5-10.8c2.1-2.2,2.1-5.6-0.1-7.8
	c-0.7-0.6-1.5-1.1-2.3-1.3c-0.9-0.3-1.8-0.3-2.8-0.1C65.1,59.7,64.2,60.2,63.5,61z"/>
<path class="st0" d="M30,69.8c6,0,11.1-2.2,15.4-6.4c4.3-4.3,6.4-9.4,6.4-15.4c0-6-2.1-11.1-6.4-15.4c-4.3-4.3-9.4-6.3-15.4-6.3
	c-6,0-11.2,2.1-15.4,6.3C10.3,36.9,8.2,42,8.2,48c0,6,2.1,11.1,6.4,15.4C18.8,67.6,24,69.8,30,69.8z"/>
</svg>
