<svg width="32" height="32" viewBox="0 0 32 32" fill="none" xmlns="http://www.w3.org/2000/svg">
<circle cx="16" cy="16" r="16" fill="white"/>
<path d="M17.9487 6.6512C17.9487 5.63978 17.1262 4.81818 16.1157 4.81818C15.1043 4.81818 14.2827 5.63978 14.2827 6.6512C14.2827 7.66262 15.1043 8.48517 16.1157 8.48517C17.1262 8.48517 17.9487 7.66262 17.9487 6.6512Z" fill="#F5333F"/>
<path d="M10.1435 22.4977C9.13206 22.4977 8.30952 23.3203 8.30952 24.3317C8.30952 25.3422 9.13206 26.1638 10.1435 26.1638C11.154 26.1638 11.9765 25.3422 11.9765 24.3317C11.9765 23.3203 11.154 22.4977 10.1435 22.4977Z" fill="#F5333F"/>
<path d="M16.1157 12.155C14.7312 12.155 13.6103 13.2779 13.6103 14.6623C13.6103 16.0458 14.7322 17.1677 16.1157 17.1677C17.5001 17.1677 18.6211 16.0449 18.6211 14.6623C18.622 13.2779 17.5001 12.155 16.1157 12.155Z" fill="#F5333F"/>
<path d="M22.0888 22.4977C21.0784 22.4977 20.2558 23.3203 20.2558 24.3317C20.2558 25.3422 21.0774 26.1638 22.0888 26.1638C23.0993 26.1638 23.9219 25.3422 23.9219 24.3317C23.9219 23.3203 23.0984 22.4977 22.0888 22.4977Z" fill="#F5333F"/>
<path fill-rule="evenodd" clip-rule="evenodd" d="M0 16.0005C0 7.16305 7.164 0 15.9995 0C24.8369 0 31.9991 7.16305 31.9991 16.0005C31.9991 24.836 24.836 32 15.9995 32C7.164 32 0 24.836 0 16.0005ZM22.0888 27.0439C20.5929 27.0439 19.3757 25.8266 19.3757 24.3308C19.3757 23.5026 19.7506 22.7603 20.338 22.2626L17.7494 17.9393C17.2574 18.1848 16.705 18.3265 16.1166 18.3265C15.5283 18.3265 14.9758 18.1848 14.4829 17.9393L11.8943 22.2626C12.4827 22.7603 12.8557 23.5026 12.8557 24.3308C12.8557 25.8266 11.6394 27.0439 10.1435 27.0439C8.6476 27.0439 7.43031 25.8266 7.43031 24.3308C7.43031 22.8349 8.6476 21.6176 10.1435 21.6176C10.4948 21.6176 10.831 21.6875 11.1398 21.8102L13.7463 17.4557C12.9539 16.7834 12.4506 15.7823 12.4506 14.6623C12.4506 12.7868 13.8596 11.2427 15.6766 11.0255V9.32566C14.3894 9.11507 13.4035 7.99787 13.4035 6.65215C13.4035 5.15626 14.6207 3.93897 16.1166 3.93897C17.6125 3.93897 18.8289 5.15626 18.8289 6.65215C18.8289 7.99787 17.8429 9.11507 16.5567 9.32566V11.0255C18.3746 11.2437 19.7827 12.7868 19.7827 14.6623C19.7827 15.7833 19.2784 16.7843 18.4861 17.4557L21.0935 21.8102C21.4023 21.6875 21.7385 21.6176 22.0898 21.6176C23.5857 21.6176 24.802 22.8349 24.802 24.3308C24.802 25.8266 23.5847 27.0439 22.0888 27.0439ZM4.49709 14.6765C4.49709 12.7188 5.72477 11.0869 7.77878 11.0869C9.27561 11.0869 10.5326 11.8849 10.7148 13.429H9.54381C9.42954 12.528 8.64288 12.0662 7.77878 12.0662C6.30934 12.0662 5.69644 13.361 5.69644 14.6765C5.69644 15.992 6.30934 17.2867 7.77878 17.2867C9.00646 17.3065 9.67791 16.5671 9.69774 15.4065H7.87511V14.4942H10.7923V18.1026H10.0245L9.84223 17.2971C9.19911 18.0261 8.61455 18.266 7.77973 18.266C5.72477 18.266 4.49709 16.6341 4.49709 14.6765Z" fill="#F5333F"/>
</svg>
